<svg id="Layer_1" enable-background="new 0 0 512 512" height="512" viewBox="0 0 512 512" width="512" xmlns="http://www.w3.org/2000/svg"><g><g><circle fill="red" cx="450.625" cy="417.38" r="10"/><path fill="red" d="m509.069 138.93-136-136c-1.859-1.86-4.439-2.93-7.069-2.93h-220c-2.63 0-5.21 1.07-7.07 2.93l-136 136c-1.86 1.86-2.93 4.44-2.93 7.07v220c0 2.63 1.07 5.21 2.93 7.07l136 136c1.86 1.86 4.44 2.93 7.07 2.93h220c2.63 0 5.21-1.07 7.069-2.93l52.801-52.8c3.899-3.9 3.899-10.24 0-14.14-1.891-1.89-4.4-2.93-7.07-2.93s-5.19 1.04-7.07 2.93l-49.871 49.87h-211.719l-130.14-130.14v-211.72l130.14-130.14h211.72l130.14 130.14v211.72l-16.641 16.63c-1.88 1.89-2.92 4.4-2.92 7.07s1.04 5.19 2.92 7.07c1.891 1.89 4.4 2.93 7.08 2.93 2.67 0 5.181-1.04 7.07-2.93l19.56-19.56c1.891-1.89 2.931-4.4 2.931-7.07v-220c0-2.67-1.04-5.18-2.931-7.07z"/><path fill="red" d="m355.071 47.929c-1.876-1.875-4.419-2.929-7.071-2.929h-184c-2.652 0-5.196 1.054-7.071 2.929l-109 109c-1.875 1.875-2.929 4.419-2.929 7.071v184c0 2.652 1.054 5.196 2.929 7.071l109 109c1.875 1.875 4.419 2.929 7.071 2.929h184c2.652 0 5.195-1.054 7.071-2.929l109-109c1.875-1.875 2.929-4.419 2.929-7.071v-184c0-2.652-1.054-5.196-2.929-7.071zm91.929 295.929-103.143 103.142h-175.715l-103.142-103.142v-175.716l103.142-103.142h175.715l103.143 103.142z"/><path fill="red" d="m136.833 247.43s-15.142-6.435-18.762-8.707c-1.521-.955-1.831-3.328-1.633-5.07.293-2.586 1.815-5.77 5.209-6.95 8.426-2.929 16.62 4.49 16.903 4.75 3.967 3.793 10.258 3.682 14.086-.264 3.846-3.963 3.751-10.294-.212-14.141-6.262-6.077-21.174-14.859-37.347-9.236-10.17 3.537-17.264 12.576-18.512 23.588-1.139 10.043 3.029 19.34 10.875 24.264 4.966 3.116 21.557 10.167 21.557 10.167 6.507 2.771 9.552 6.936 8.574 11.728-.856 4.195-4.797 8.441-10.673 8.441-6.247 0-12.334-3.003-16.282-8.034-3.41-4.344-9.696-5.101-14.041-1.691-4.344 3.41-5.102 9.696-1.691 14.041 7.709 9.821 19.677 15.684 32.015 15.684 14.649 0 27.379-10.28 30.27-24.442 2.904-14.235-5.078-27.631-20.336-34.128z"/><path fill="red" d="m228.75 206h-45c-5.523 0-10 4.477-10 10s4.477 10 10 10h12.409v70c0 5.523 4.477 10 10 10s10-4.477 10-10v-70h12.591c5.523 0 10-4.477 10-10s-4.477-10-10-10z"/><path fill="red" d="m361.25 306c5.522 0 10-4.477 10-10v-24.848c4.935-.024 10.492 0 13.606 0 18.965 0 34.394-14.614 34.394-32.576s-15.429-32.576-34.394-32.576h-23.606c-5.522 0-10 4.477-10 10v80c0 5.523 4.478 10 10 10zm38-67.424c0 6.817-6.592 12.576-14.394 12.576-3.125 0-8.67-.023-13.606 0v-25.152h13.606c7.802 0 14.394 5.759 14.394 12.576z"/><path fill="red" d="m288.25 206c-23.71 0-43 22.43-43 50s19.29 50 43 50 43-22.43 43-50-19.29-50-43-50zm0 80c-12.683 0-23-13.458-23-30s10.317-30 23-30 23 13.458 23 30-10.317 30-23 30z"/></g></g></svg>